<?xml version="1.0" standalone="no"?>
<!DOCTYPE svg PUBLIC "-//W3C//DTD SVG 20010904//EN"
 "http://www.w3.org/TR/2001/REC-SVG-20010904/DTD/svg10.dtd">
<svg version="1.0" xmlns="http://www.w3.org/2000/svg"
 width="265.000000pt" height="265.000000pt" viewBox="0 0 265.000000 265.000000"
 preserveAspectRatio="xMidYMid meet">
<metadata>
Created by potrace 1.14, written by Peter Selinger 2001-2017
</metadata>
<g transform="translate(0.000000,265.000000) scale(0.100000,-0.100000)"
fill="#000000" stroke="none">
<path d="M0 2174 l0 -475 23 7 c12 3 34 13 49 20 15 8 32 14 37 14 18 0 0 -29
-22 -36 -28 -8 -87 -64 -87 -81 0 -21 15 -15 48 20 38 39 87 77 99 77 16 0 36
-47 35 -81 -1 -34 -12 -55 -12 -22 0 28 -23 46 -38 31 -26 -26 -2 -75 31 -62
24 9 29 -26 19 -141 -4 -55 -6 -116 -2 -135 5 -34 7 -35 52 -38 30 -2 52 -10
63 -23 21 -23 37 -25 29 -4 -4 8 -1 15 6 15 10 0 11 24 5 103 -7 102 -17 135
-35 107 -5 -8 -12 -11 -17 -7 -4 4 5 18 21 30 24 20 28 29 28 82 1 50 -3 61
-21 73 -27 18 -30 74 -4 71 31 -3 36 1 23 16 -10 12 -9 16 6 22 11 3 23 11 27
17 5 6 6 -21 3 -60 -3 -39 -1 -107 5 -150 5 -43 10 -124 10 -179 -1 -89 3
-112 36 -210 42 -128 88 -193 156 -220 37 -15 96 -67 97 -87 0 -14 -51 -8 -56
6 -7 17 -70 49 -82 42 -5 -3 -16 11 -26 31 -44 92 -171 225 -257 269 -67 34
-116 39 -174 19 -57 -19 -75 -32 -75 -53 0 -13 2 -13 17 1 32 28 99 49 139 43
63 -11 151 -65 218 -136 70 -74 128 -154 131 -179 1 -9 5 -28 9 -43 10 -33 -4
-61 -15 -32 -7 18 -8 18 -8 -2 -1 -27 -31 -56 -31 -30 0 9 -4 16 -9 16 -12 0
-53 89 -46 100 9 15 -25 80 -51 97 -23 15 -54 12 -54 -4 0 -4 14 -16 30 -25
17 -9 30 -24 30 -33 0 -8 5 -15 10 -15 6 0 10 -4 10 -9 0 -5 -21 2 -47 17 -29
16 -48 22 -50 15 -3 -7 -21 0 -47 17 -57 39 -94 53 -138 51 -38 -1 -60 15 -35
25 9 3 13 13 10 25 -6 22 -13 23 -48 7 -23 -10 -25 -16 -25 -75 0 -35 5 -73
10 -83 7 -13 7 -21 0 -25 -6 -4 -10 -68 -10 -160 0 -150 1 -154 26 -184 14
-17 29 -44 34 -62 18 -62 -4 -215 -41 -277 -10 -18 -19 -41 -19 -50 0 -9 15 7
32 37 43 74 48 46 7 -36 -25 -49 -34 -80 -34 -120 -1 -44 2 -53 14 -51 10 2
18 18 21 43 3 26 10 40 20 41 8 1 20 2 26 3 14 1 45 99 42 131 -3 21 1 25 22
22 14 -2 28 -7 32 -11 4 -4 -1 -37 -12 -74 -16 -58 -17 -69 -5 -74 10 -3 13
-13 9 -29 -4 -14 -2 -24 4 -24 6 0 13 8 15 18 4 16 5 16 6 0 1 -12 9 -18 25
-18 49 0 35 -19 -16 -23 -29 -2 27 -4 125 -5 151 -2 177 0 177 13 0 8 5 15 10
15 6 0 10 5 10 11 0 8 -4 8 -12 2 -7 -6 -21 -13 -31 -16 -21 -8 -23 16 -2 37
8 8 15 30 15 48 0 38 24 145 35 156 3 4 13 -1 20 -12 15 -20 1 -67 -19 -63
-15 3 -8 -44 9 -62 18 -18 48 -6 41 16 -3 10 -1 25 4 33 8 13 9 13 14 0 11
-37 16 -139 6 -145 -5 -3 -10 -13 -10 -21 0 -10 12 -14 40 -14 39 0 40 1 34
28 -3 15 -10 39 -16 54 -5 14 -8 35 -6 45 2 10 12 -15 23 -55 20 -77 39 -99
29 -32 -4 27 -3 40 5 40 6 0 12 -8 13 -17 0 -10 2 -22 3 -28 2 -5 3 -16 4 -22
1 -10 114 -13 529 -13 l527 1 -35 29 c-19 16 -40 28 -47 25 -14 -5 -43 26 -43
47 0 13 19 28 35 28 2 0 8 -15 15 -32 6 -19 29 -47 53 -65 38 -28 50 -32 105
-31 34 0 62 2 62 5 0 2 -14 22 -31 45 -16 24 -28 50 -26 60 4 12 -10 28 -44
53 -46 33 -63 65 -40 79 20 13 99 -34 125 -74 28 -43 33 -69 14 -66 -7 0 -14
-2 -15 -6 -8 -22 0 -35 29 -52 28 -17 31 -17 25 -3 -4 10 -3 17 1 17 10 0 55
-31 63 -43 4 -5 12 -6 18 -3 12 8 15 39 4 50 -15 15 -31 86 -21 92 14 9 79
-71 107 -132 8 -19 19 -21 113 -23 l103 -2 -75 76 c-41 41 -79 75 -83 75 -5 0
-4 -7 3 -15 7 -9 11 -18 8 -20 -8 -8 -24 15 -42 58 -14 36 -14 38 1 35 10 -2
22 -12 28 -24 5 -11 42 -49 80 -85 39 -35 76 -72 83 -81 11 -15 30 -18 124
-18 98 0 109 2 98 15 -7 9 -10 18 -7 21 3 3 12 -3 19 -15 7 -12 23 -21 36 -21
l23 0 -3 307 c-2 170 -7 317 -11 328 -7 16 -7 17 2 5 15 -21 15 201 0 255 -13
45 -55 105 -75 105 -7 0 -19 19 -26 41 -8 28 -22 48 -42 60 -29 18 -29 19 -8
19 13 0 35 -12 49 -28 14 -15 29 -26 33 -25 9 3 50 -36 67 -63 11 -18 12 -18
12 4 1 13 -9 32 -21 43 l-23 19 23 19 c27 24 29 35 3 21 -30 -15 -56 -12 -86
11 -20 17 -40 22 -83 22 -32 -1 -75 5 -97 12 -32 11 -81 11 -231 4 -104 -6
-226 -9 -270 -7 l-79 3 -7 65 c-6 47 -3 80 7 117 8 28 15 73 15 100 0 59 -25
174 -50 230 -24 52 -129 193 -144 193 -7 0 -24 30 -40 66 -33 74 -81 138 -180
235 -72 71 -101 86 -216 113 l-65 15 70 -6 c138 -10 226 -74 368 -266 31 -41
60 -78 66 -81 6 -4 34 -9 63 -12 81 -8 92 -11 124 -39 l29 -25 -26 0 c-15 0
-30 7 -33 16 -3 9 -13 13 -23 11 -10 -3 -35 -8 -56 -12 -52 -8 -47 -26 6 -19
40 5 43 4 80 -40 35 -42 42 -46 84 -46 36 0 44 3 39 15 -4 11 2 15 20 15 16 0
37 -13 59 -37 19 -21 35 -32 35 -25 0 6 7 12 16 12 13 0 15 -6 10 -27 -4 -16
-9 -50 -12 -78 -8 -73 -16 -86 -25 -40 -24 119 -24 120 -45 121 -12 1 -26 4
-31 7 -6 4 -25 2 -42 -4 -23 -8 -31 -17 -31 -35 0 -17 -4 -22 -15 -18 -8 4
-15 18 -15 33 0 39 -22 65 -48 57 -19 -6 -20 -10 -9 -41 7 -18 24 -47 40 -64
15 -17 27 -37 27 -45 0 -25 19 -28 42 -7 44 41 52 18 12 -34 -14 -19 -34 -37
-44 -40 -23 -7 -20 -54 4 -67 16 -9 16 -12 2 -33 -20 -30 -20 -35 -1 -35 8 0
15 4 15 9 0 5 23 12 52 15 54 7 74 -3 62 -34 -3 -8 1 -54 7 -102 13 -93 27
-110 48 -60 10 25 17 28 44 25 18 -2 44 -3 60 -3 19 0 27 -5 27 -16 0 -14 7
-15 43 -10 23 4 46 11 51 16 4 4 23 6 41 3 26 -4 33 -1 37 15 5 19 50 33 76
24 15 -5 16 -48 2 -57 -6 -4 -8 -11 -5 -16 12 -18 23 -9 28 24 3 17 8 42 12
55 7 21 5 22 -36 21 -24 0 -67 -4 -96 -8 -39 -5 -54 -4 -57 6 -3 7 -12 13 -21
13 -21 0 -20 56 1 64 25 10 94 7 94 -4 0 -13 77 -13 85 0 4 6 26 8 55 4 27 -4
78 -3 114 1 l66 7 0 64 c0 50 -3 64 -15 64 -19 0 -19 9 0 34 8 11 15 31 15 44
0 24 -1 24 -60 18 -56 -7 -60 -6 -60 14 0 30 -13 24 -34 -15 -20 -37 -53 -71
-61 -63 -3 3 6 17 20 32 16 17 20 28 12 30 -6 2 -30 9 -52 15 -34 9 -42 8 -52
-6 -12 -15 -13 -14 -13 9 0 36 -18 45 -26 13 -9 -35 -21 -31 -38 10 -8 19 -20
35 -25 35 -6 0 -11 7 -11 15 0 9 -11 21 -25 27 -14 6 -25 15 -25 20 0 14 115
9 136 -7 19 -14 19 -14 -3 -15 -12 0 -25 -4 -28 -10 -4 -6 19 -9 61 -8 64 2
67 1 95 -32 l28 -35 1 28 c0 29 0 29 53 22 28 -3 64 -8 80 -11 15 -3 27 -1 27
4 0 5 -21 13 -47 17 -39 6 -44 9 -29 17 10 6 31 7 47 4 l29 -5 0 464 0 465
-1325 0 -1325 0 0 -476z m965 140 c13 -5 14 -8 3 -15 -21 -13 -45 -10 -52 6
-6 16 18 20 49 9z m-135 -15 c0 -8 12 -10 35 -6 32 5 35 4 35 -19 0 -14 6 -37
14 -52 7 -15 16 -40 20 -57 12 -48 -9 -17 -29 43 -9 29 -24 56 -32 59 -8 3
-40 0 -71 -8 -32 -7 -69 -14 -83 -14 -39 -1 -77 -30 -81 -62 -2 -21 -14 -34
-46 -51 -49 -27 -51 -42 -2 -17 18 9 34 14 38 11 6 -7 10 -5 -51 -35 -49 -25
-77 -62 -77 -103 0 -13 -5 -30 -10 -38 -14 -22 -13 45 1 72 6 11 8 22 6 25 -9
9 -71 -92 -94 -152 -17 -47 -22 -54 -22 -32 -1 35 49 153 89 212 17 25 45 52
63 61 18 9 58 44 89 79 44 48 67 65 100 73 91 24 108 25 108 11z m287 -46 c21
-20 23 -24 8 -18 -11 5 -55 10 -97 13 -87 5 -104 19 -30 25 26 2 57 4 69 5 12
1 35 -10 50 -25z m-257 -20 c0 -5 -34 -22 -76 -40 -41 -17 -73 -26 -71 -20 2
6 32 23 68 38 71 30 79 32 79 22z m430 -23 c31 -16 71 -50 58 -50 -2 0 -22 8
-44 19 -21 10 -53 22 -71 25 -17 4 -38 14 -45 23 -12 14 -9 15 27 9 21 -4 55
-16 75 -26z m-619 -33 c-8 -8 -11 -7 -11 4 0 20 13 34 18 19 3 -7 -1 -17 -7
-23z m22 -84 c19 -65 14 -83 -7 -31 -22 51 -29 88 -18 88 5 0 16 -26 25 -57z
m208 26 c28 -9 52 -9 93 -1 65 13 160 1 215 -28 20 -10 74 -36 121 -58 114
-52 140 -77 194 -182 26 -49 54 -94 64 -99 9 -5 16 -12 15 -15 -2 -3 6 -25 16
-48 11 -24 31 -97 46 -163 14 -66 33 -125 41 -131 8 -6 14 -18 14 -27 0 -9 4
-18 9 -22 6 -3 9 -13 9 -23 0 -9 2 -71 5 -137 l6 -120 -17 125 c-13 97 -23
136 -44 174 -16 27 -28 55 -28 63 0 8 -5 11 -11 7 -8 -4 -9 0 -4 15 3 11 2 21
-3 21 -5 0 -9 17 -10 38 -3 99 -30 202 -52 202 -5 0 -7 8 -3 18 3 9 3 14 -2
10 -10 -10 -37 11 -29 23 3 5 0 9 -6 9 -7 0 -10 6 -7 13 7 19 -51 125 -86 157
-35 32 -33 31 -160 89 -110 52 -161 63 -265 63 -46 -1 -93 3 -105 7 -33 12
-43 4 -39 -33 2 -20 -2 -44 -12 -58 -21 -32 -26 -156 -7 -191 17 -31 31 -35
31 -9 0 38 22 53 67 44 l43 -7 66 -140 c36 -77 74 -162 85 -189 11 -27 28 -61
38 -75 10 -14 35 -55 55 -90 31 -53 34 -63 18 -59 -17 5 -18 2 -12 -26 4 -17
24 -68 44 -113 20 -45 36 -84 36 -88 0 -4 7 -21 15 -38 8 -18 46 -108 83 -202
40 -98 75 -170 82 -170 17 0 24 -21 11 -29 -14 -9 -35 25 -91 155 -28 63 -56
125 -64 139 -8 14 -29 61 -46 105 -17 44 -76 177 -130 295 -105 229 -200 459
-200 484 0 9 -8 20 -18 25 -23 12 -62 -12 -62 -38 0 -65 219 -596 238 -577 4
5 -5 30 -43 121 -15 35 -15 38 -1 26 21 -18 20 -3 -4 55 -11 26 -18 49 -15 52
7 7 3 14 98 -175 87 -172 120 -252 163 -397 30 -97 30 -106 2 -105 -13 0 -17
3 -10 6 16 6 15 23 -2 23 -17 0 -52 54 -96 147 -19 40 -36 71 -38 68 -2 -2 5
-23 16 -47 43 -92 142 -321 159 -368 17 -48 17 -50 -2 -64 -13 -9 -21 -11 -24
-4 -2 6 2 14 9 18 9 5 8 9 -3 13 -10 4 -13 13 -10 26 7 26 -24 120 -48 146
-10 11 -18 23 -18 28 -1 4 -7 22 -15 40 -7 17 -26 61 -41 97 -15 36 -43 96
-62 134 -20 41 -32 78 -29 90 3 13 -4 29 -24 47 -15 15 -26 30 -22 33 3 3 -2
6 -10 6 -11 0 -14 6 -11 20 8 30 -6 92 -19 84 -6 -4 -8 -3 -5 2 3 6 -2 28 -12
49 -10 22 -28 70 -40 107 -22 67 -43 100 -35 56 3 -17 1 -16 -11 7 -8 17 -12
40 -10 52 6 28 -4 53 -21 53 -8 0 -14 7 -14 16 0 9 5 13 13 9 6 -4 4 0 -7 9
-10 8 -15 19 -11 25 3 6 1 19 -5 28 -10 16 -11 16 -6 -2 5 -17 3 -16 -14 5
-11 14 -20 30 -20 37 0 6 -11 34 -24 63 -23 49 -23 54 -10 103 11 41 11 57 2
75 -13 25 -36 29 -44 7 -4 -8 -12 -15 -19 -15 -8 0 -17 -9 -20 -20 -3 -11 -22
-32 -41 -46 -50 -39 -114 -123 -114 -151 0 -13 -7 -40 -15 -61 -13 -29 -18
-34 -25 -22 -14 21 -12 49 6 109 12 42 28 65 75 109 32 31 59 62 59 70 0 9 7
11 19 7 14 -4 29 6 58 42 63 79 73 83 144 62z m609 -161 c0 -19 -20 -6 -26 16
-3 14 -14 32 -25 42 -10 9 -19 22 -19 27 0 5 16 -10 35 -34 19 -24 35 -47 35
-51z m-191 26 c14 -12 -19 -1 -35 12 -18 14 -18 14 6 3 14 -6 27 -13 29 -15z
m243 -98 c28 -72 18 -74 -19 -5 -23 44 -27 59 -16 57 9 -2 24 -25 35 -52z
m-1147 -86 l-16 -35 6 49 c9 67 19 90 23 51 2 -17 -4 -46 -13 -65z m1590 13
c83 -31 75 -42 -10 -13 -32 11 -65 20 -74 20 -9 0 -25 8 -36 16 -19 15 -18 16
15 9 19 -3 66 -18 105 -32z m-351 -38 l27 -40 -35 39 c-20 22 -36 44 -36 50 0
12 6 5 44 -49z m-1364 -12 c3 -3 -1 -8 -7 -10 -7 -3 -13 -13 -13 -24 0 -27
-58 -26 -105 2 -38 23 -37 34 5 42 28 6 112 -2 120 -10z m113 -78 c3 -41 2
-60 -3 -45 -8 25 -13 127 -6 119 2 -2 6 -35 9 -74z m1248 35 c19 0 89 -86 89
-109 0 -9 -27 12 -65 49 -35 36 -65 69 -65 75 0 5 5 4 12 -3 7 -7 19 -12 29
-12z m859 10 c8 -5 12 -12 9 -15 -8 -8 -39 5 -39 16 0 11 11 11 30 -1z m-333
-44 c13 -25 12 -30 -12 -62 -30 -39 -44 -44 -38 -11 3 14 -3 29 -16 41 -21 19
-22 19 -36 0 -14 -18 -14 -18 -15 4 0 46 17 62 62 58 33 -3 44 -9 55 -30z m61
-5 c19 -27 20 -41 1 -41 -8 0 -39 52 -39 65 0 14 18 2 38 -24z m-1972 -27 c5
-18 1 -31 -11 -42 -10 -10 -15 -11 -11 -4 4 7 1 24 -8 37 -21 31 -20 35 4 35
13 0 22 -9 26 -26z m262 -26 c-14 -60 -13 -195 2 -213 7 -8 9 -26 5 -44 -3
-17 -2 -38 4 -48 8 -14 11 -15 11 -3 1 10 4 9 10 -5 11 -26 12 -35 3 -35 -19
1 -44 30 -48 56 -2 16 -9 56 -16 89 -19 100 1 268 30 250 5 -3 4 -24 -1 -47z
m1070 17 c-3 -3 -9 2 -12 12 -6 14 -5 15 5 6 7 -7 10 -15 7 -18z m376 -62
c-20 -32 -34 -27 -22 7 8 23 13 29 22 20 7 -7 7 -15 0 -27z m306 27 c0 -5 -5
-10 -11 -10 -5 0 -7 5 -4 10 3 6 8 10 11 10 2 0 4 -4 4 -10z m-1863 -22 c-3
-8 -6 -5 -6 6 -1 11 2 17 5 13 3 -3 4 -12 1 -19z m65 -218 c24 -50 53 -92 87
-125 35 -34 56 -65 66 -95 15 -50 138 -315 173 -374 12 -21 17 -36 10 -34 -6
2 -35 49 -63 104 -47 91 -54 99 -82 101 -83 4 -177 75 -207 156 -17 45 -17 50
-1 84 12 25 16 49 11 79 -7 51 -2 55 17 17 12 -23 12 -33 1 -58 -30 -68 -11
-135 55 -199 42 -42 109 -72 125 -56 6 6 -5 40 -26 87 -20 43 -42 96 -49 117
-9 23 -27 47 -46 60 -49 32 -139 223 -157 336 -4 19 7 -1 22 -45 16 -44 45
-114 64 -155z m1297 89 c9 -57 -4 -119 -26 -119 -17 0 -16 4 3 42 15 30 15 55
-2 138 -5 22 -4 23 6 7 6 -10 15 -40 19 -68z m-1549 -23 c0 -27 -6 -48 -15
-56 -13 -11 -15 -5 -15 42 0 30 3 58 6 61 14 14 24 -6 24 -47z m1830 -11 c0
-19 -41 -37 -55 -23 -7 6 -3 14 9 24 26 18 46 18 46 -1z m-313 -17 c-3 -8 -6
-5 -6 6 -1 11 2 17 5 13 3 -3 4 -12 1 -19z m-1299 -33 c25 -51 26 -55 13 -55
-8 0 -51 81 -51 95 0 19 19 -2 38 -40z m1618 5 c11 -11 48 -14 94 -8 20 2 25
-2 27 -22 2 -14 -4 -34 -12 -44 -12 -16 -17 -17 -30 -6 -12 10 -18 10 -29 1
-8 -7 -28 -14 -44 -16 -25 -3 -31 0 -34 20 -6 28 2 85 11 85 4 0 12 -5 17 -10z
m-1632 -136 c2 -20 0 -32 -4 -27 -12 14 -30 75 -30 102 1 25 1 24 15 -7 8 -19
16 -49 19 -68z m1930 -124 l29 -18 -27 1 c-14 1 -26 5 -26 10 0 4 -7 7 -15 7
-8 0 -15 -4 -15 -10 0 -6 -11 -5 -27 2 -47 20 -46 25 5 26 32 0 58 -6 76 -18z
m-519 -28 c-6 -7 -35 18 -35 31 0 5 9 2 20 -8 11 -10 18 -20 15 -23z m150 28
c3 -6 -1 -7 -9 -4 -18 7 -21 14 -7 14 6 0 13 -4 16 -10z m181 1 c-3 -5 -15 -7
-26 -4 -28 7 -25 13 6 13 14 0 23 -4 20 -9z m46 -3 c49 -46 56 -50 76 -39 22
12 104 -10 133 -35 27 -23 29 -3 3 25 -13 14 -19 28 -14 29 15 5 38 -16 46
-41 4 -12 15 -34 25 -48 15 -22 39 -75 64 -144 4 -11 -6 0 -23 25 -43 66 -89
113 -103 104 -7 -4 -18 1 -25 11 -11 15 -16 16 -29 5 -13 -11 -19 -10 -33 4
-26 23 -39 20 -17 -4 33 -36 7 -33 -36 4 -24 20 -46 36 -51 36 -4 0 -8 11 -8
24 0 15 -7 26 -20 29 -11 3 -20 10 -20 16 0 15 15 14 32 -1z m-117 -25 c28 -9
59 -16 70 -17 19 -2 155 -124 155 -140 0 -11 -23 5 -44 32 -18 23 -225 132
-251 132 -8 0 -17 5 -21 12 -5 8 0 9 17 4 13 -4 47 -15 74 -23z m-32 -43 c15
-7 27 -16 27 -21 0 -11 -73 -17 -86 -8 -17 14 -118 20 -125 7 -10 -16 -49 1
-49 22 0 25 43 36 78 21 21 -10 27 -10 33 2 7 12 16 12 51 2 24 -6 55 -17 71
-25z m117 -156 c0 -2 -13 2 -30 11 -16 9 -30 18 -30 21 0 2 14 -2 30 -11 17
-9 30 -18 30 -21z m-1992 -30 c23 -20 40 -39 37 -44 -3 -5 5 -16 17 -24 12 -9
16 -16 9 -16 -10 0 -10 -5 3 -25 20 -30 20 -35 1 -35 -8 0 -17 14 -20 34 -7
34 -82 126 -103 126 -7 0 -12 5 -12 10 0 20 27 9 68 -26z m378 9 c-8 -8 -36 5
-36 17 0 7 6 7 21 0 11 -7 18 -14 15 -17z m1233 -13 c11 -24 11 -24 -3 -6 -9
11 -16 24 -16 30 0 12 5 7 19 -24z m-138 -17 c-12 -20 -14 -14 -5 12 4 9 9 14
11 11 3 -2 0 -13 -6 -23z m-977 -18 c22 -16 15 -18 -33 -9 -17 4 -31 10 -31
15 0 14 43 10 64 -6z m1898 -47 c10 -28 16 -53 14 -55 -4 -5 -46 92 -46 108 0
22 13 0 32 -53z m-2532 12 c0 -5 -2 -10 -4 -10 -3 0 -8 5 -11 10 -3 6 -1 10 4
10 6 0 11 -4 11 -10z m465 -33 c-16 -24 -117 -77 -149 -77 -9 0 -25 -9 -35
-19 -17 -17 -18 -26 -10 -53 12 -42 11 -48 -2 -48 -9 0 -22 25 -43 85 -6 16
-9 17 -16 5 -8 -13 -10 -12 -10 3 0 10 -7 20 -15 23 -31 12 -13 19 53 20 51 1
85 9 142 32 41 17 79 38 85 46 5 8 11 13 13 11 2 -2 -4 -14 -13 -28z m1789
-10 c10 -37 7 -67 -7 -67 -9 0 -13 12 -13 33 0 17 -4 40 -8 50 -6 13 -5 16 7
11 8 -3 18 -15 21 -27z m-2235 -40 c19 -58 14 -87 -7 -41 -13 28 -28 112 -18
103 3 -3 14 -31 25 -62z m1806 33 c17 -33 18 -40 7 -40 -9 0 -32 44 -32 60 0
18 9 10 25 -20z m-1111 -18 c19 -37 6 -60 -18 -33 -11 13 -15 27 -11 40 8 27
12 26 29 -7z m-109 8 c3 -5 1 -10 -4 -10 -6 0 -11 5 -11 10 0 6 2 10 4 10 3 0
8 -4 11 -10z m935 -19 c0 -6 -4 -13 -10 -16 -5 -3 -10 1 -10 9 0 9 5 16 10 16
6 0 10 -4 10 -9z m1029 -41 c0 -10 -3 -8 -9 5 -12 27 -12 43 0 25 5 -8 9 -22
9 -30z m-773 -5 c7 -19 14 -40 14 -47 -1 -16 -39 52 -40 70 0 22 11 12 26 -23z
m-1660 -33 c-12 -11 -18 7 -10 30 l8 23 4 -23 c2 -13 1 -26 -2 -30z m2269 -37
c5 -26 4 -37 -2 -30 -6 6 -13 28 -16 49 -8 51 9 34 18 -19z m-756 0 c0 -5 -4
-3 -9 5 -5 8 -9 22 -9 30 0 16 17 -16 18 -35z m-1632 -3 c16 -40 24 -90 14
-97 -5 -2 -12 10 -15 29 -4 19 -13 39 -21 46 -19 15 -20 61 -2 55 7 -3 17 -18
24 -33z m127 -12 c10 -13 9 -13 -6 -1 -10 7 -18 21 -17 30 0 13 1 14 6 1 3 -8
11 -22 17 -30z m16 30 c0 -5 -2 -10 -4 -10 -3 0 -8 5 -11 10 -3 6 -1 10 4 10
6 0 11 -4 11 -10z m-64 -69 c-9 -10 -16 -22 -16 -27 -1 -5 -12 -22 -26 -39
l-26 -30 23 45 c32 66 52 95 57 81 2 -7 -3 -20 -12 -30z m330 0 c-23 -26 -125
-36 -169 -17 l-32 15 55 -1 c30 0 75 4 100 10 65 14 65 14 46 -7z m-168 -50
c8 -23 -44 -9 -73 20 l-30 31 50 -20 c27 -11 51 -24 53 -31z m2169 37 c15 -20
16 -128 1 -129 -7 0 -25 -3 -40 -5 -38 -6 -35 8 7 30 19 11 35 23 35 27 0 21
-36 65 -50 62 -10 -3 -8 1 4 11 24 19 31 20 43 4z m-787 -28 c0 -5 -2 -10 -4
-10 -3 0 -8 5 -11 10 -3 6 -1 10 4 10 6 0 11 -4 11 -10z m-30 -22 c0 -16 -3
-19 -11 -11 -6 6 -8 16 -5 22 11 17 16 13 16 -11z m751 9 c-6 -8 -17 -32 -25
-55 -13 -36 -13 -43 -1 -50 12 -6 11 -10 -5 -20 -19 -11 -20 -9 -20 33 0 45
31 105 53 105 5 0 4 -6 -2 -13z m-525 -24 c-10 -10 -19 5 -10 18 6 11 8 11 12
0 2 -7 1 -15 -2 -18z m-1642 -3 c5 -5 2 -24 -7 -48 -15 -38 -15 -40 6 -50 12
-7 31 -11 41 -9 40 5 24 -21 -29 -47 -30 -15 -59 -35 -64 -44 -8 -13 -12 -14
-25 -3 -9 8 -36 14 -61 15 -41 1 -45 3 -45 26 0 48 27 57 88 31 43 -18 53 -6
19 22 -28 23 -28 36 -1 116 5 15 60 9 78 -9z m467 -111 c30 -39 60 -81 68 -93
15 -21 15 -21 -5 -1 -39 41 -124 147 -124 156 0 16 7 10 61 -62z m1839 45 c0
-15 -9 -17 -34 -8 -15 6 -15 8 1 19 20 15 33 11 33 -11z m-1275 -54 c3 -5 1
-10 -4 -10 -6 0 -11 5 -11 10 0 6 2 10 4 10 3 0 8 -4 11 -10z m761 -40 c50
-41 70 -67 60 -77 -3 -4 -6 -1 -6 5 0 6 -6 9 -13 6 -8 -3 -20 2 -27 11 -7 8
-9 15 -5 15 19 0 -30 40 -56 45 -29 6 -35 15 -22 28 11 12 20 8 69 -33z m-70
-11 c19 -11 43 -34 55 -50 18 -26 18 -29 4 -29 -10 0 -34 18 -55 39 -21 21
-46 44 -56 50 -18 10 -18 10 0 11 10 0 34 -9 52 -21z m-36 -24 c29 -28 67 -91
60 -99 -3 -2 -14 -6 -25 -8 -16 -2 -21 3 -23 29 -3 29 -8 33 -60 50 -46 15
-58 23 -60 42 -4 23 -2 24 38 18 26 -3 53 -15 70 -32z m-1301 -33 c1 -7 -3
-10 -9 -7 -5 3 -10 21 -9 38 1 31 1 31 9 7 4 -14 8 -31 9 -38z m1161 -97 c45
-68 51 -89 17 -57 -27 26 -57 29 -57 6 0 -23 -24 -11 -28 14 -3 18 2 22 22 22
25 0 25 0 8 30 -20 35 -32 38 -39 10 -4 -16 -8 -18 -19 -9 -20 16 -17 32 8 59
25 27 17 34 88 -75z m781 36 c16 -19 28 -36 25 -39 -3 -3 2 -11 12 -18 9 -7
14 -15 11 -19 -10 -9 -40 25 -33 36 3 6 0 9 -7 8 -8 -2 -24 2 -37 9 -12 7 -26
11 -31 8 -4 -3 -24 4 -44 14 -21 11 -37 15 -37 10 0 -7 -8 -7 -22 1 l-23 12
20 -23 20 -22 -35 7 c-19 4 -45 14 -57 22 -15 10 -34 13 -57 9 -18 -4 -41 -4
-50 0 -43 17 -2 22 149 20 l166 -2 30 -33z m-1869 -43 c2 -21 0 -38 -4 -38 -4
0 -8 21 -7 48 1 52 6 48 11 -10z m1461 -18 c3 -11 1 -20 -4 -20 -10 0 -29 33
-29 51 0 18 27 -7 33 -31z m437 -31 c0 -16 -16 -10 -37 14 -37 41 -37 51 0 23
20 -16 37 -32 37 -37z m-1015 -16 l18 -28 -21 19 c-12 11 -22 23 -22 28 0 14
7 9 25 -19z m1005 -15 c0 -6 -6 -5 -15 2 -8 7 -15 14 -15 16 0 2 7 1 15 -2 8
-4 15 -11 15 -16z m-405 -18 c-6 -9 -9 -9 -16 1 -10 17 0 34 13 21 6 -6 7 -16
3 -22z"/>
<path d="M2550 166 c0 -2 7 -9 15 -16 9 -7 15 -8 15 -2 0 5 -7 12 -15 16 -8 3
-15 4 -15 2z"/>
<path d="M2560 1666 c0 -2 8 -10 18 -17 15 -13 16 -12 3 4 -13 16 -21 21 -21
13z"/>
<path d="M49 1555 c-13 -13 -30 -25 -36 -25 -10 0 -13 -35 -13 -140 0 -126 6
-160 24 -131 3 5 27 14 53 21 71 17 83 32 70 83 -5 23 -16 50 -23 61 -7 10
-10 25 -7 32 3 9 -1 14 -12 14 -14 0 -16 7 -10 55 8 64 -6 73 -46 30z"/>
<path d="M1894 1367 c-3 -8 -4 -43 -2 -78 3 -61 4 -63 16 -35 17 39 20 118 5
123 -7 3 -15 -2 -19 -10z"/>
<path d="M2595 1280 c-3 -5 1 -10 9 -10 8 0 18 5 21 10 3 6 -1 10 -9 10 -8 0
-18 -4 -21 -10z"/>
<path d="M2637 1270 c-3 -11 -1 -20 4 -20 5 0 9 9 9 20 0 11 -2 20 -4 20 -2 0
-6 -9 -9 -20z"/>
<path d="M2637 1163 c-4 -3 -7 -11 -7 -17 0 -6 5 -5 12 2 6 6 9 14 7 17 -3 3
-9 2 -12 -2z"/>
<path d="M197 1039 c12 -13 26 -18 33 -14 9 6 6 12 -11 21 -36 20 -46 17 -22
-7z"/>
<path d="M255 1050 c3 -5 11 -10 16 -10 6 0 7 5 4 10 -3 6 -11 10 -16 10 -6 0
-7 -4 -4 -10z"/>
<path d="M460 909 c0 -8 7 -23 15 -33 11 -14 15 -16 15 -5 0 8 -7 23 -15 33
-11 14 -15 16 -15 5z"/>
<path d="M1 470 c0 -83 0 -84 14 -51 19 42 18 79 0 111 -13 23 -14 19 -14 -60z"/>
<path d="M516 94 c-10 -27 3 -30 27 -6 l21 22 -21 0 c-11 0 -24 -7 -27 -16z"/>
<path d="M2080 25 c0 -16 6 -25 15 -25 16 0 19 9 9 34 -9 25 -24 19 -24 -9z"/>
<path d="M100 22 c0 -12 19 -26 26 -19 2 2 -2 10 -11 17 -9 8 -15 8 -15 2z"/>
</g>
</svg>
